<?xml version="1.0" encoding="UTF-8" standalone="no"?>
<svg
   xmlns:dc="http://purl.org/dc/elements/1.1/"
   xmlns:cc="http://creativecommons.org/ns#"
   xmlns:rdf="http://www.w3.org/1999/02/22-rdf-syntax-ns#"
   xmlns:svg="http://www.w3.org/2000/svg"
   xmlns="http://www.w3.org/2000/svg"
   height="115mm"
   width="139mm"
   id="svg903"
   viewBox="0 0 525.35435 434.64566"
   version="1.1"
   stroke-miterlimit="10"
   stroke-linecap="square"
   stroke="none"
   fill="none">
  <metadata
     id="metadata909">
    <rdf:RDF>
      <cc:Work
         rdf:about="">
        <dc:format>image/svg+xml</dc:format>
        <dc:type
           rdf:resource="http://purl.org/dc/dcmitype/StillImage" />
        <dc:title></dc:title>
      </cc:Work>
    </rdf:RDF>
  </metadata>
  <defs
     id="defs907" />
  <path
     d="M 525.08789,203.76172 523.3418,184.57031 519.27148,163.05078 504.73047,136.88086 477.39844,113.61719 428.54492,85.119141 379.69141,61.857422 352.9375,50.806641 317.46094,40.337891 306.12109,33.650391 292.45312,21.146484 277.91406,11.841797 261.91992,6.3164062 203.4707,0.79101562 172.06641,0.5 134.26367,3.1171875 104.60156,8.3496094 90.644531,14.166016 74.361328,25.216797 54.003906,49.644531 30.158203,90.353516 17.363281,119.43359 6.3144531,161.88867 1.0800781,196.7832 0.65429688,216.95508 1.0800781,237.125 l 5.234375,34.89453 11.0488279,42.45508 12.794922,29.08008 23.845703,40.70898 20.357422,24.42774 16.283203,11.05078 13.957029,5.8164 29.66211,5.23243 37.80274,2.61718 31.40429,-0.29101 58.44922,-5.52539 15.99414,-5.52539 14.53906,-9.30469 13.66797,-12.50391 11.33985,-6.6875 35.47656,-10.46875 26.75391,-11.05078 48.85351,-23.26172 48.85352,-28.49804 27.33203,-23.26368 14.54101,-26.16992 4.07032,-21.51953 1.74609,-19.19141 0.084,-13.208 z"
     style="fill:#8c0000;fill-opacity:1"
     id="path921" />
</svg>
